<svg width="150" height="23" viewBox="0 0 150 23" fill="none" xmlns="http://www.w3.org/2000/svg">
<path d="M18.1439 18.7739H5.66483L18.1439 3.73852V3.65724C18.3081 3.4947 18.3902 3.25088 18.3902 3.00707V1.54417C18.3902 0.975265 17.9797 0.568904 17.405 0.568904H1.88828C1.88828 0.568904 1.88828 0.568904 1.80618 0.568904C1.31358 0.568904 0.82099 1.05654 0.82099 1.54417V3.41343C0.82099 3.90106 1.31358 4.38869 1.80618 4.38869H12.5612L0.246297 19.0989C0.0820992 19.2615 0.082099 19.424 0 19.6678V21.6184C0 22.106 0.410495 22.5124 0.90309 22.5124C0.90309 22.5124 0.903089 22.5124 0.985188 22.5124H17.9797C18.4723 22.4311 18.8828 22.0247 18.8828 21.5371V19.6678C19.047 19.1802 18.6365 18.7739 18.1439 18.7739Z" fill="#021119"/>
<path d="M103.116 18.7739H90.6373L103.116 3.73852V3.65724C103.281 3.4947 103.363 3.25088 103.363 3.00707V1.54417C103.363 0.975265 102.952 0.568904 102.377 0.568904H86.8608C86.8608 0.568904 86.8608 0.568904 86.7787 0.568904C86.2861 0.568904 85.7935 1.05654 85.7935 1.54417V3.41343C85.7935 3.90106 86.2861 4.38869 86.7787 4.38869H97.5337L85.2188 19.0989C85.0546 19.2615 85.0546 19.424 84.9725 19.6678V21.6184C84.9725 22.106 85.383 22.5124 85.8756 22.5124C85.8756 22.5124 85.8756 22.5124 85.9577 22.5124H102.952C103.445 22.4311 103.855 22.0247 103.855 21.5371V19.6678C103.937 19.1802 103.609 18.7739 103.116 18.7739Z" fill="#021119"/>
<path d="M37.7656 9.10247H26.2717C26.6001 6.4205 28.4884 3.81979 32.0186 3.81979C35.0563 3.81979 37.4372 6.09541 37.7656 9.10247ZM40.1464 4.0636C38.3403 1.4629 35.631 0 32.1828 0C26.1075 0 21.6741 4.79505 21.6741 11.4594C21.9204 18.8551 25.7791 23 32.347 23C37.1088 23 40.4748 20.5618 41.7063 16.3357V16.2544C41.7063 16.1731 41.7063 16.1731 41.7063 16.0919V16.0106C41.7063 15.523 41.2958 15.1166 40.8032 15.0353H38.5045C38.094 15.0353 37.7656 15.3604 37.6014 15.6855V15.7668C36.9446 17.9611 35.1384 19.1802 32.5112 19.1802C30.5408 19.1802 28.981 18.6113 27.8316 17.4735C26.7643 16.3357 26.1896 14.7915 26.1075 12.9223H41.2137C41.6242 12.9223 42.0347 12.6784 42.1989 12.1908V12.1095C42.1989 12.0283 42.1989 12.0283 42.1989 11.947V11.8657C42.3631 10.159 42.0347 6.82686 40.1464 4.0636Z" fill="#021119"/>
<path d="M71.5083 3.81979C74.5459 3.81979 76.9268 6.09541 77.3373 9.10247H65.7613C66.1718 6.4205 67.978 3.81979 71.5083 3.81979ZM79.6361 4.0636C77.8299 1.4629 75.1206 0 71.6725 0C65.5971 0 61.1638 4.79505 61.1638 11.4594C61.4101 18.8551 65.2687 23 71.8367 23C76.5984 23 79.9645 20.5618 81.196 16.3357V16.2544C81.196 16.1731 81.196 16.1731 81.196 16.0919V16.0106C81.196 15.523 80.7855 15.1166 80.2929 15.0353H77.9941C77.5836 15.0353 77.2552 15.3604 77.091 15.6855V15.7668C76.4342 17.9611 74.628 19.1802 72.0009 19.1802C70.0305 19.1802 68.4706 18.6113 67.3212 17.4735C66.2539 16.3357 65.6792 14.7915 65.5971 12.9223H80.8676C81.278 12.9223 81.6885 12.6784 81.8527 12.1908V12.1095C81.8527 12.0283 81.8527 12.0283 81.8527 11.947V11.8657C81.8527 10.159 81.6064 6.82686 79.6361 4.0636Z" fill="#021119"/>
<path d="M122.738 9.10247H111.162C111.49 6.4205 113.379 3.81979 116.909 3.81979C119.947 3.81979 122.41 6.09541 122.738 9.10247ZM125.037 4.0636C123.231 1.4629 120.521 0 117.073 0C110.998 0 106.565 4.79505 106.565 11.4594C106.811 18.8551 110.67 23 117.237 23C121.999 23 125.365 20.5618 126.597 16.3357V16.2544C126.597 16.1731 126.597 16.1731 126.597 16.0919V16.0106C126.597 15.523 126.186 15.1166 125.694 15.0353H123.395C122.984 15.0353 122.656 15.3604 122.492 15.6855V15.7668C121.835 17.9611 120.029 19.1802 117.402 19.1802C115.431 19.1802 113.871 18.6113 112.722 17.4735C111.655 16.3357 111.08 14.7915 110.998 12.9223H126.104C126.515 12.9223 126.925 12.6784 127.089 12.1908V12.1095C127.089 12.0283 127.089 12.0283 127.089 11.947V11.8657C127.254 10.159 127.007 6.82686 125.037 4.0636Z" fill="#021119"/>
<path d="M142.77 9.50883C142.278 9.42756 141.867 9.26502 141.375 9.18375C138.583 8.61484 136.038 8.04594 136.038 6.17668C136.038 5.44523 136.449 3.81979 140.225 3.81979C141.703 3.81979 144.248 4.14488 144.741 6.58304V6.66431C144.823 7.07067 145.233 7.39576 145.726 7.39576H148.025C148.435 7.39576 148.846 7.15194 149.01 6.66431V6.58304C149.01 6.50177 149.01 6.50177 149.01 6.4205V6.25795C148.435 2.0318 145.479 0 139.897 0C135.874 0 131.441 2.0318 131.441 6.4205C131.441 10.8092 135.217 12.0283 138.747 12.841C139.076 12.9223 139.404 13.0035 139.733 13.0848C142.77 13.735 145.479 14.3039 145.479 16.417C145.479 18.6926 142.852 19.1802 140.636 19.1802C136.613 19.1802 135.546 17.3922 135.299 15.9293C135.217 15.4417 134.889 15.1166 134.396 15.0353H131.933C131.687 15.0353 131.441 15.1979 131.276 15.3604C131.112 15.523 131.03 15.7668 131.03 15.9293V16.0106C131.03 16.0919 131.03 16.0919 131.03 16.0919C131.523 20.4806 134.889 22.9187 140.471 22.9187C145.069 22.9187 149.995 21.0495 149.995 15.8481C150.159 11.5406 146.3 10.3216 142.77 9.50883Z" fill="#021119"/>
<path d="M50.6551 0.487632H48.3563C47.8637 0.487632 47.3711 0.893993 47.3711 1.4629V21.6184C47.3711 22.106 47.7816 22.5124 48.2742 22.5936H50.6551C51.1477 22.5936 51.6403 22.1873 51.6403 21.6996V1.4629C51.6403 0.975265 51.2298 0.568904 50.6551 0.487632Z" fill="#021119"/>
<path d="M56.0736 0C54.2675 0 52.8718 1.4629 52.8718 3.16961C52.8718 4.9576 54.3496 6.33922 56.0736 6.33922C57.8798 6.33922 59.2755 4.87633 59.2755 3.16961C59.3576 1.4629 57.8798 0 56.0736 0Z" fill="#021119"/>
</svg>
