<svg width="13" height="15" viewBox="0 0 13 15" fill="none" xmlns="http://www.w3.org/2000/svg">
<path d="M12 6.31818C12 10.4545 6.5 14 6.5 14C6.5 14 1 10.4545 1 6.31818C1 4.90771 1.57946 3.55501 2.61091 2.55766C3.64236 1.56031 5.04131 1 6.5 1C7.95869 1 9.35764 1.56031 10.3891 2.55766C11.4205 3.55501 12 4.90771 12 6.31818Z" stroke="#73A3FB" stroke-width="2" stroke-linecap="round" stroke-linejoin="round"/>
<path d="M6.5 8.09091C7.51252 8.09091 8.33333 7.29723 8.33333 6.31818C8.33333 5.33913 7.51252 4.54545 6.5 4.54545C5.48748 4.54545 4.66667 5.33913 4.66667 6.31818C4.66667 7.29723 5.48748 8.09091 6.5 8.09091Z" stroke="#73A3FB" stroke-width="2" stroke-linecap="round" stroke-linejoin="round"/>
</svg>
