<svg width="20" height="21" viewBox="0 0 20 21" fill="none" xmlns="http://www.w3.org/2000/svg">
<path d="M0.136963 20.5C0.138273 19.1976 0.396241 17.9082 0.896124 16.7055C1.39601 15.5029 2.128 14.4105 3.05028 13.4909C3.97255 12.5713 5.06704 11.8424 6.27114 11.346C7.47524 10.8496 8.76532 10.5953 10.0677 10.5977C11.3702 10.5953 12.6604 10.8496 13.8646 11.346C15.0688 11.8424 16.1633 12.5712 17.0857 13.4908C18.0081 14.4104 18.7403 15.5027 19.2403 16.7054C19.7403 17.9081 19.9985 19.1975 20 20.5" fill="#3F3F3F"/>
<path d="M10.0678 8.73118C12.3408 8.73118 14.1834 6.88857 14.1834 4.61559C14.1834 2.34261 12.3408 0.5 10.0678 0.5C7.79482 0.5 5.95221 2.34261 5.95221 4.61559C5.95221 6.88857 7.79482 8.73118 10.0678 8.73118Z" fill="#3F3F3F"/>
</svg>
